<svg width="16" height="16" viewBox="0 0 16 16" fill="none" xmlns="http://www.w3.org/2000/svg">
 <style>
    .grid {
       fill: black;
       opacity: 0.12;
    }
    @media (prefers-color-scheme: dark) {
      .grid {
        fill: white;
        opacity: 0.12;
      }
    }
  </style>

<path class="grid" fill-rule="evenodd" clip-rule="evenodd" d="M0 3H16V5H0V3ZM0 7H16V9H0V7ZM16 11H0V13H16V11Z"/>
<path d="M6.04297 9.0957H2.7041L2.06934 11H0.0444336L3.48486 1.75781H5.24951L8.70898 11H6.68408L6.04297 9.0957ZM3.21826 7.55322H5.52881L4.36719 4.09375L3.21826 7.55322ZM13.4316 11C13.347 10.835 13.2856 10.6297 13.2476 10.3843C12.8032 10.8794 12.2256 11.127 11.5146 11.127C10.8418 11.127 10.2832 10.9323 9.83887 10.543C9.39876 10.1536 9.17871 9.66276 9.17871 9.07031C9.17871 8.34245 9.44743 7.78385 9.98486 7.39453C10.5265 7.00521 11.3073 6.80843 12.3271 6.8042H13.1714V6.41064C13.1714 6.09326 13.0889 5.83936 12.9238 5.64893C12.763 5.4585 12.507 5.36328 12.1558 5.36328C11.8468 5.36328 11.6035 5.43734 11.4258 5.58545C11.2523 5.73356 11.1655 5.93669 11.1655 6.19482H9.33105C9.33105 5.79704 9.45378 5.42887 9.69922 5.09033C9.94466 4.75179 10.2917 4.4873 10.7402 4.29688C11.1888 4.10221 11.6924 4.00488 12.251 4.00488C13.0973 4.00488 13.7681 4.21859 14.2632 4.646C14.7625 5.06917 15.0122 5.66585 15.0122 6.43604V9.41309C15.0164 10.0648 15.1074 10.5578 15.2852 10.8921V11H13.4316ZM11.9146 9.72412C12.1854 9.72412 12.4351 9.66488 12.6636 9.54639C12.8921 9.42367 13.0614 9.26074 13.1714 9.05762V7.87695H12.4858C11.5675 7.87695 11.0788 8.19434 11.0195 8.8291L11.0132 8.93701C11.0132 9.16553 11.0936 9.35384 11.2544 9.50195C11.4152 9.65007 11.6353 9.72412 11.9146 9.72412Z" fill="url(#paint0_linear)"/>
<defs>
<linearGradient id="paint0_linear" x1="-4.02845e-07" y1="19" x2="21.3343" y2="12.9344" gradientUnits="userSpaceOnUse">
<stop stop-color="#7638F4"/>
<stop offset="1" stop-color="#FF5A98"/>
</linearGradient>
</defs>
</svg>
