<svg width="48" height="24" viewBox="0 0 48 24" fill="none" xmlns="http://www.w3.org/2000/svg">
<path fill-rule="evenodd" clip-rule="evenodd" d="M24 0H0V24H24V0ZM3 5.5L4.5 4L7.5 7L9.5 9L11.5 11L13.5 13L15.5 15L17.5 17L19 18.5L17.5 20L14.5 17H2V15H12.5L10.5 13H2V11H8.5L6.5 9H2V7H4.5L3 5.5ZM12.5 9L10.5 7H22V9H12.5ZM16.5 13L14.5 11H22V13H16.5ZM20.5 17L18.5 15H22V17H20.5Z" fill="white"/>
<path fill-rule="evenodd" clip-rule="evenodd" d="M48 0H24V24H48V0ZM46 7H26V9H46V7ZM46 11H26V13H46V11ZM26 15H46V17H26V15Z" fill="white"/>
</svg>
