<svg width="24" height="24" viewBox="0 0 24 24" fill="none" xmlns="http://www.w3.org/2000/svg">
<path fill-rule="evenodd" clip-rule="evenodd" d="M16.4427 3.52733L17 3.66667V4.33333L16.4427 4.47267C16.2083 4.53129 15.9942 4.6525 15.8234 4.82335C15.6525 4.9942 15.5313 5.20827 15.4727 5.44267L15.3333 6H14.6667L14.5273 5.44267C14.4687 5.20827 14.3475 4.9942 14.1766 4.82335C14.0058 4.6525 13.7917 4.53129 13.5573 4.47267L13 4.33333V3.66667L13.5573 3.52733C13.7916 3.46861 14.0055 3.34734 14.1763 3.1765C14.347 3.00566 14.4681 2.79165 14.5267 2.55733L14.6667 2H15.3333L15.4727 2.55733C15.5313 2.79173 15.6525 3.0058 15.8234 3.17665C15.9942 3.3475 16.2083 3.46871 16.4427 3.52733ZM10.1246 3C9.42341 4.52207 9.20557 6.22247 9.5004 7.87213C9.79523 9.5218 10.5886 11.0415 11.7735 12.2265C12.9585 13.4114 14.4782 14.2048 16.1279 14.4996C17.7775 14.7944 19.4779 14.5766 21 13.8754C20.0946 17.9523 16.4576 21 12.1084 21C7.07783 21 3 16.9222 3 11.8916C3 7.54235 6.04767 3.90537 10.1246 3ZM21 8.66667L20.4427 8.52733C20.2083 8.46871 19.9942 8.3475 19.8234 8.17665C19.6525 8.0058 19.5313 7.79173 19.4727 7.55733L19.3333 7H18.6667L18.5273 7.55733C18.4687 7.79173 18.3475 8.0058 18.1766 8.17665C18.0058 8.3475 17.7917 8.46871 17.5573 8.52733L17 8.66667V9.33333L17.5573 9.47267C17.7917 9.53129 18.0058 9.6525 18.1766 9.82335C18.3475 9.9942 18.4687 10.2083 18.5273 10.4427L18.6667 11H19.3333L19.4727 10.4427C19.5313 10.2083 19.6525 9.9942 19.8234 9.82335C19.9942 9.6525 20.2083 9.53129 20.4427 9.47267L21 9.33333V8.66667Z" fill="#8000FF"/>
</svg>
