<svg width="48" height="24" viewBox="0 0 48 24" fill="none" xmlns="http://www.w3.org/2000/svg">
<path fill-rule="evenodd" clip-rule="evenodd" d="M24 0H0V24H24V0ZM17 3.66663L16.4426 3.52734C16.2083 3.46875 15.9943 3.34753 15.8234 3.17664C15.6525 3.00574 15.5312 2.79175 15.4727 2.55737L15.3334 2H14.6666L14.5266 2.55737C14.4681 2.79163 14.347 3.00562 14.1763 3.17651C14.0055 3.34729 13.7916 3.46863 13.5574 3.52734L13 3.66663V4.33337L13.5574 4.47266C13.7018 4.50879 13.8384 4.5686 13.962 4.64917C14.0391 4.69946 14.111 4.75769 14.1766 4.82336C14.3475 4.99426 14.4688 5.20825 14.5273 5.44263L14.6666 6H15.3334L15.4727 5.44263C15.5312 5.20825 15.6525 4.99426 15.8234 4.82336C15.9128 4.73389 16.0142 4.65808 16.1239 4.59766C16.2239 4.54272 16.3309 4.50061 16.4426 4.47266L17 4.33337V3.66663ZM9.50037 7.87219C9.20557 6.22241 9.42346 4.52209 10.1246 3C6.04761 3.9054 3 7.54236 3 11.8916C3 16.9221 7.07788 21 12.1084 21C16.4576 21 20.0946 17.9524 21 13.8754C19.4779 14.5765 17.7776 14.7944 16.1278 14.4996C14.4781 14.2047 12.9585 13.4114 11.7736 12.2264C10.5886 11.0415 9.79529 9.52185 9.50037 7.87219ZM20.4426 8.52734L21 8.66663V9.33337L20.4426 9.47266C20.2083 9.53125 19.9943 9.65247 19.8234 9.82336C19.7277 9.91907 19.6476 10.0283 19.5853 10.1471C19.5364 10.2404 19.4984 10.3395 19.4727 10.4426L19.3334 11H18.6666L18.5273 10.4426C18.4688 10.2083 18.3475 9.99426 18.1766 9.82336C18.0057 9.65247 17.7917 9.53125 17.5574 9.47266L17 9.33337V8.66663L17.5574 8.52734C17.7917 8.46875 18.0057 8.34753 18.1766 8.17664C18.3475 8.00574 18.4688 7.79175 18.5273 7.55737L18.6666 7H19.3334L19.4727 7.55737C19.5312 7.79175 19.6525 8.00574 19.8234 8.17664C19.9943 8.34753 20.2083 8.46875 20.4426 8.52734Z" fill="white"/>
<path fill-rule="evenodd" clip-rule="evenodd" d="M48 0H24V24H48V0ZM31.0503 4.05025C32.363 2.7375 34.1435 2 36 2C37.8565 2 39.637 2.7375 40.9497 4.05025C42.2625 5.36301 43 7.14348 43 9C43 11.38 41.81 13.47 40 14.74V17C40 17.2652 39.8946 17.5196 39.7071 17.7071C39.5196 17.8946 39.2652 18 39 18H33C32.7348 18 32.4804 17.8946 32.2929 17.7071C32.1054 17.5196 32 17.2652 32 17V14.74C30.19 13.47 29 11.38 29 9C29 7.14348 29.7375 5.36301 31.0503 4.05025ZM33.2929 20.7071C33.1054 20.5196 33 20.2652 33 20V19H39V20C39 20.2652 38.8946 20.5196 38.7071 20.7071C38.5196 20.8946 38.2652 21 38 21H34C33.7348 21 33.4804 20.8946 33.2929 20.7071Z" fill="white"/>
</svg>
