<svg width="48" height="24" viewBox="0 0 48 24" fill="none" xmlns="http://www.w3.org/2000/svg">
<path fill-rule="evenodd" clip-rule="evenodd" d="M24 0H0V24H24V0ZM17 3.66667L16.4427 3.52733C16.2083 3.46871 15.9942 3.3475 15.8234 3.17665C15.6525 3.0058 15.5313 2.79173 15.4727 2.55733L15.3333 2H14.6667L14.5267 2.55733C14.4681 2.79165 14.347 3.00566 14.1763 3.1765C14.0055 3.34734 13.7916 3.46861 13.5573 3.52733L13 3.66667V4.33333L13.5573 4.47267C13.7917 4.53129 14.0058 4.6525 14.1766 4.82335C14.3475 4.9942 14.4687 5.20827 14.5273 5.44267L14.6667 6H15.3333L15.4727 5.44267C15.5313 5.20827 15.6525 4.9942 15.8234 4.82335C15.9942 4.6525 16.2083 4.53129 16.4427 4.47267L17 4.33333V3.66667ZM9.5004 7.87213C9.20557 6.22247 9.42341 4.52207 10.1246 3C6.04767 3.90537 3 7.54235 3 11.8916C3 16.9222 7.07783 21 12.1084 21C16.4576 21 20.0946 17.9523 21 13.8754C19.4779 14.5766 17.7775 14.7944 16.1279 14.4996C14.4782 14.2048 12.9585 13.4114 11.7735 12.2265C10.5886 11.0415 9.79523 9.5218 9.5004 7.87213ZM20.4427 8.52733L21 8.66667V9.33333L20.4427 9.47267C20.2083 9.53129 19.9942 9.6525 19.8234 9.82335C19.6525 9.9942 19.5313 10.2083 19.4727 10.4427L19.3333 11H18.6667L18.5273 10.4427C18.4687 10.2083 18.3475 9.9942 18.1766 9.82335C18.0058 9.6525 17.7917 9.53129 17.5573 9.47267L17 9.33333V8.66667L17.5573 8.52733C17.7917 8.46871 18.0058 8.3475 18.1766 8.17665C18.3475 8.0058 18.4687 7.79173 18.5273 7.55733L18.6667 7H19.3333L19.4727 7.55733C19.5313 7.79173 19.6525 8.0058 19.8234 8.17665C19.9942 8.3475 20.2083 8.46871 20.4427 8.52733Z" fill="#202124"/>
<path fill-rule="evenodd" clip-rule="evenodd" d="M48 0H24V24H48V0ZM42 9C42 11.2208 40.7934 13.1599 39 14.1973V16C39 16.2652 38.8946 16.5196 38.7071 16.7071C38.5196 16.8946 38.2652 17 38 17H34C33.7348 17 33.4804 16.8946 33.2929 16.7071C33.1054 16.5196 33 16.2652 33 16V14.1973C31.2066 13.1599 30 11.2208 30 9C30 5.68629 32.6863 3 36 3C39.3137 3 42 5.68629 42 9ZM34 19C34 19.2652 34.1054 19.5196 34.2929 19.7071C34.4804 19.8946 34.7348 20 35 20H37C37.2652 20 37.5196 19.8946 37.7071 19.7071C37.8946 19.5196 38 19.2652 38 19V18H34V19Z" fill="#202124"/>
</svg>
